#!OML:ASF F:\twosubjects\two\wednesday\Session 1\rory1.ASF
:FULLY-SPECIFIED
:DEGREES
1
root 17.3517 16.9894 -12.0786 14.0944 -73.3808 -3.5611
lowerback 5.9895 1.78568 1.62343
upperback 2.69784 2.40982 -0.460292
thorax -0.490927 1.19882 -1.53207
lowerneck -7.27253 -6.82082 -6.31391
upperneck 9.38602 -9.29532 7.39302
head 4.64462 -4.41213 2.68329
rclavicle -1.44367e-014 -9.55409e-015
rhumerus -36.3837 -10.0975 -61.526
rradius 38.4888
rwrist -5.33947
rhand -10.9215 37.9037
rfingers 7.12502
rthumb 15.0961 8.47422
lclavicle -1.44367e-014 -9.55409e-015
lhumerus -37.8997 5.86147 71.3187
lradius 35.619
lwrist 7.90681
lhand -28.0529 19.8397
lfingers 7.12502
lthumb -1.43696 49.8146
rfemur 2.90916 4.12185 22.5825
rtibia 33.875
rfoot -16.9915 -19.9214
rtoes -26.4023
lfemur -46.9342 5.80094 -14.0463
ltibia 54.6349
lfoot -18.7357 -2.15265
ltoes -19.3542
2
root 17.2037 16.9781 -11.9711 12.4028 -73.27 -2.05568
lowerback 6.06033 1.72126 1.0383
upperback 2.73072 2.29051 -0.600827
thorax -0.518978 1.13506 -1.34355
lowerneck -7.2731 -7.00469 -6.54315
upperneck 9.36552 -9.56104 7.75737
head 4.68637 -4.53165 2.80958
rclavicle 5.90577e-014 -3.85145e-014
rhumerus -36.2714 -9.92594 -61.2279
rradius 38.5861
rwrist -5.60564
rhand -10.5261 38.0902
rfingers 7.12502
rthumb 15.4769 8.68972
lclavicle 5.90577e-014 -3.85145e-014
lhumerus -36.9138 5.79039 71.0329
lradius 35.5775
lwrist 8.49467
lhand -27.2971 19.382
lfingers 7.12502
lthumb -0.707079 49.3606
rfemur 2.06163 3.66755 21.8528
rtibia 36.8362
rfoot -15.5032 -19.4325
rtoes -27.4899
lfemur -46.293 5.6948 -14.7058
ltibia 55.1954
lfoot -19.5428 -1.84595
ltoes -21.4097
3
root 17.0613 16.9619 -11.866 11.8948 -73.0295 -1.84458
lowerback 6.23658 1.54784 0.90915
upperback 2.74583 2.0523 -0.653148
thorax -0.611287 1.01435 -1.31544
lowerneck -7.19845 -7.10661 -6.85706
upperneck 9.34729 -9.71517 8.1535
head 4.71505 -4.59983 2.97032
rclavicle 7.50412e-015 -1.21756e-014
rhumerus -36.0864 -9.76362 -60.9791
rradius 38.6078
rwrist -5.77102
rhand -10.3575 38.2465
rfingers 7.12502
rthumb 15.6393 8.85867
lclavicle 7.50412e-015 -1.21756e-014
lhumerus -35.999 6.1669 70.6226
lradius 35.5444
lwrist 8.74249
lhand -26.3305 18.4558
lfingers 7.12502
lthumb 0.226509 48.4354
rfemur 0.830117 3.36579 21.5769
rtibia 40.6253
rfoot -14.1652 -18.5389
rtoes -25.5934
lfemur -45.6777 5.58482 -14.9031
ltibia 55.6703
lfoot -19.9469 -2.41486
ltoes -21.5326
4
root 16.9276 16.9311 -11.7537 11.0604 -72.7076 -1.25116
lowerback 6.41999 1.37351 0.861851
upperback 2.74146 1.81609 -0.805962
thorax -0.720859 0.89573 -1.43582
lowerneck -7.15442 -7.13245 -7.04331
upperneck 9.39084 -9.77791 8.49262
head 4.75234 -4.6207 3.09945
rclavicle 2.40281e-014 1.39149e-014
rhumerus -35.9188 -9.56547 -60.8158
rradius 38.7027
rwrist -6.18051
rhand -10.4357 38.1154
rfingers 7.12502
rthumb 15.564 8.72169
lclavicle 2.40281e-014 1.39149e-014
lhumerus -34.8084 6.30933 70.2688
lradius 35.2805
lwrist 8.47776
lhand -27.4974 19.083
lfingers 7.12502
lthumb -0.90046 49.0608
rfemur -0.49412 2.83199 21.0511
rtibia 44.3506
rfoot -12.5499 -17.2235
rtoes -21.4669
lfemur -45.2099 5.44413 -15.2616
ltibia 56.1288
lfoot -20.0902 -3.42104
ltoes -19.2684
5
root 16.789 16.8977 -11.6494 8.13555 -72.6962 1.47937
lowerback 6.50559 1.39261 -0.0830718
upperback 2.87048 1.77714 -1.09769
thorax -0.656899 0.869626 -1.20355
lowerneck -7.32487 -7.22581 -7.1454
upperneck 9.3943 -9.9207 8.79171
head 4.81421 -4.67419 3.1894
rclavicle -2.13694e-015 7.25564e-015
rhumerus -35.6237 -9.49656 -60.5504
rradius 38.8209
rwrist -6.66894
rhand -10.3959 37.792
rfingers 7.12502
rthumb 15.6024 8.4013
lclavicle -2.13694e-015 7.25564e-015
lhumerus -33.2839 6.49074 70.0428
lradius 35.0305
lwrist 7.91581
lhand -28.1526 21.2351
lfingers 7.12502
lthumb -1.53332 51.2094
rfemur -1.96061 2.45919 19.7538
rtibia 48.3839
rfoot -10.2669 -16.0208
rtoes -19.4023
lfemur -44.5384 5.49317 -16.3661
ltibia 56.5248
lfoot -20.3561 -4.12979
ltoes -17.6417
6
root 16.6476 16.8657 -11.5592 5.22664 -72.7322 4.09481
lowerback 6.67856 1.4895 -1.21028
upperback 3.05085 1.82773 -1.28547
thorax -0.59527 0.883462 -0.77056
lowerneck -7.41347 -7.49621 -7.45769
upperneck 9.20827 -10.2726 9.13328
head 4.83574 -4.83888 3.31196
rclavicle -1.99779e-014 -9.64106e-015
rhumerus -35.2612 -9.33579 -60.0775
rradius 38.9312
rwrist -7.2339
rhand -10.0543 37.4983
rfingers 7.12502
rthumb 15.9313 8.13352
lclavicle -1.99779e-014 -9.64106e-015
lhumerus -31.677 6.36859 70.099
lradius 35.0125
lwrist 7.76545
lhand -28.2281 22.802
lfingers 7.12502
lthumb -1.60623 52.7757
rfemur -3.48253 2.41224 18.6477
rtibia 52.5766
rfoot -7.95449 -15.0717
rtoes -17.9452
lfemur -43.7503 5.85405 -17.4449
ltibia 56.9595
lfoot -20.7128 -4.55994
ltoes -18.161
